<mxfile host="65bd71144e">
    <diagram id="2fYxXXaUipQ489jllucV" name="Page-1">
        <mxGraphModel dx="970" dy="837" grid="1" gridSize="10" guides="1" tooltips="1" connect="1" arrows="1" fold="1" page="1" pageScale="1" pageWidth="800" pageHeight="450" math="1" shadow="0">
            <root>
                <mxCell id="0"/>
                <mxCell id="1" parent="0"/>
                <mxCell id="8" style="edgeStyle=none;html=1;exitX=1;exitY=0.25;exitDx=0;exitDy=0;entryX=0;entryY=0.25;entryDx=0;entryDy=0;fontFamily=Helvetica;fontSize=16;" parent="1" source="2" target="3" edge="1">
                    <mxGeometry relative="1" as="geometry"/>
                </mxCell>
                <mxCell id="2" value="\(28274_{10}\)" style="rounded=0;whiteSpace=wrap;html=1;fontStyle=1;fontFamily=Helvetica;fontSize=16;" parent="1" vertex="1">
                    <mxGeometry y="210" width="180" height="60" as="geometry"/>
                </mxCell>
                <mxCell id="9" style="edgeStyle=none;html=1;exitX=0;exitY=0.75;exitDx=0;exitDy=0;entryX=1;entryY=0.75;entryDx=0;entryDy=0;fontFamily=Helvetica;fontSize=16;" parent="1" source="3" target="2" edge="1">
                    <mxGeometry relative="1" as="geometry"/>
                </mxCell>
                <mxCell id="10" style="edgeStyle=elbowEdgeStyle;html=1;exitX=0.5;exitY=0;exitDx=0;exitDy=0;entryX=0.5;entryY=0;entryDx=0;entryDy=0;elbow=vertical;fontFamily=Helvetica;startArrow=classic;startFill=1;fontSize=16;" parent="1" source="3" target="5" edge="1">
                    <mxGeometry relative="1" as="geometry">
                        <Array as="points">
                            <mxPoint x="520" y="100"/>
                        </Array>
                    </mxGeometry>
                </mxCell>
                <mxCell id="11" style="edgeStyle=elbowEdgeStyle;html=1;exitX=0.5;exitY=1;exitDx=0;exitDy=0;entryX=0.5;entryY=1;entryDx=0;entryDy=0;elbow=vertical;fontFamily=Helvetica;startArrow=classic;startFill=1;fontSize=16;" parent="1" source="3" target="4" edge="1">
                    <mxGeometry relative="1" as="geometry">
                        <Array as="points">
                            <mxPoint x="520" y="380"/>
                        </Array>
                    </mxGeometry>
                </mxCell>
                <mxCell id="3" value="\( 110111001110010_{2} \)" style="rounded=0;whiteSpace=wrap;html=1;fontStyle=1;fontFamily=Helvetica;fontSize=16;" parent="1" vertex="1">
                    <mxGeometry x="340" y="210" width="180" height="60" as="geometry"/>
                </mxCell>
                <mxCell id="4" value="\( 6e72_{16} \)" style="rounded=0;whiteSpace=wrap;html=1;fontStyle=1;fontFamily=Helvetica;fontSize=16;" parent="1" vertex="1">
                    <mxGeometry x="540" y="300" width="180" height="60" as="geometry"/>
                </mxCell>
                <mxCell id="5" value="\( 67162_8 \)" style="rounded=0;whiteSpace=wrap;html=1;fontStyle=1;fontFamily=Helvetica;fontSize=16;" parent="1" vertex="1">
                    <mxGeometry x="540" y="120" width="180" height="60" as="geometry"/>
                </mxCell>
                <mxCell id="12" value="Konvertierung" style="text;html=1;align=center;verticalAlign=middle;whiteSpace=wrap;rounded=0;fontSize=16;" parent="1" vertex="1">
                    <mxGeometry x="200" y="230" width="120" height="20" as="geometry"/>
                </mxCell>
            </root>
        </mxGraphModel>
    </diagram>
</mxfile>